<?xml version="1.0" encoding="UTF-8" standalone="no"?>
<svg
   width="400"
   height="400"
   viewBox="0 0 105.83334 105.83334"
   version="1.1"
   id="svg5"
   inkscape:version="1.1 (c68e22c387, 2021-05-23)"
   sodipodi:docname="ZoogIconSource.svg"
   xmlns:inkscape="http://www.inkscape.org/namespaces/inkscape"
   xmlns:sodipodi="http://sodipodi.sourceforge.net/DTD/sodipodi-0.dtd"
   xmlns="http://www.w3.org/2000/svg"
   xmlns:svg="http://www.w3.org/2000/svg">
  <sodipodi:namedview
     id="namedview7"
     pagecolor="#505050"
     bordercolor="#eeeeee"
     borderopacity="1"
     objecttolerance="10.0"
     gridtolerance="10.0"
     guidetolerance="10.0"
     inkscape:pageshadow="0"
     inkscape:pageopacity="0"
     inkscape:pagecheckerboard="0"
     inkscape:document-units="px"
     showgrid="false"
     inkscape:zoom="1.2056723"
     inkscape:cx="230.99146"
     inkscape:cy="192.00906"
     inkscape:window-width="1920"
     inkscape:window-height="1177"
     inkscape:window-x="-8"
     inkscape:window-y="-8"
     inkscape:window-maximized="1"
     inkscape:current-layer="layer1"
     width="400px" />
  <defs
     id="defs2" />
  <g
     inkscape:label="Layer 1"
     inkscape:groupmode="layer"
     id="layer1">
    <path
       id="path31"
       style="fill:#ffffff;fill-opacity:1;stroke:#000000;stroke-width:0.205128;stroke-miterlimit:4;stroke-dasharray:none;stroke-opacity:1;image-rendering:auto"
       d="m 49.856399,0.18668846 c -2.746486,0.19856657 -5.48699,0.53162904 -8.174821,1.14110414 -2.474762,0.5195454 -4.901899,1.2587653 -7.273557,2.1320419 -2.57052,0.968894 -5.06704,2.1277586 -7.459674,3.4779007 -2.15329,1.2228765 -4.23123,2.5862566 -6.191014,4.1010488 -2.187436,1.662471 -4.214399,3.524279 -6.124653,5.496951 -1.954743,2.095229 -3.781473,4.313549 -5.3803119,6.694063 -1.4042728,2.041652 -2.6375481,4.199826 -3.7398439,6.418032 -1.2043554,2.468531 -2.2239998,5.02448 -3.0383186,7.647781 -0.726726,2.367307 -1.3030416,4.784936 -1.68828634,7.231751 -0.45102489,2.7104 -0.65032904,5.455414 -0.68335257,8.201411 0.01128,2.891456 0.21635135,5.783775 0.69097577,8.637703 0.38501144,2.420886 0.95502654,4.813033 1.67282894,7.156321 0.814257,2.623694 1.8305194,5.18146 3.0361309,7.649926 1.2931756,2.613734 2.7797055,5.135728 4.4916638,7.498461 1.4569339,2.068284 3.0981619,4.004238 4.8396629,5.837348 1.908366,1.975797 3.962075,3.808157 6.147968,5.471931 2.347988,1.77203 4.832572,3.367522 7.445439,4.721552 2.210052,1.176675 4.521333,2.161735 6.877298,3.005715 2.590743,0.91221 5.248356,1.62498 7.947798,2.13196 2.436019,0.4448 4.903924,0.74039 7.379006,0.83778 2.744578,0.13175 5.494221,0.0115 8.225585,-0.27458 2.870245,-0.34751 5.718875,-0.88675 8.498332,-1.68849 2.360012,-0.66367 4.669389,-1.50866 6.91489,-2.49141 2.509257,-1.11588 4.930869,-2.421959 7.241924,-3.905304 2.445938,-1.588681 4.780516,-3.356259 6.927953,-5.332329 1.884852,-1.686761 3.615556,-3.542921 5.2344,-5.484522 1.758093,-2.144134 3.349609,-4.42105 4.761077,-6.807669 1.481134,-2.542076 2.777551,-5.195269 3.814631,-7.9504 0.89109,-2.311179 1.59928,-4.693452 2.15655,-7.106324 0.60685,-2.679132 1.00483,-5.402421 1.19533,-8.142776 0.66914,-9.409393 -1.28339,-18.977 -5.54323,-27.391045 C 94.838383,18.706994 86.067327,10.148276 75.542069,5.1935719 67.680309,1.4549612 58.886102,-0.29092277 50.192159,0.17701364 c -0.111921,0.003225 -0.22384,0.00645 -0.33576,0.009675 z" />
    <ellipse
       style="fill:#000000;fill-opacity:1;stroke:none;stroke-width:0.693643;stroke-miterlimit:4;stroke-dasharray:none;stroke-opacity:1"
       id="path1080"
       cx="20.401096"
       cy="52.916801"
       rx="16.69693"
       ry="32.708191" />
    <ellipse
       style="fill:#000000;fill-opacity:1;stroke:none;stroke-width:0.693643;stroke-miterlimit:4;stroke-dasharray:none;stroke-opacity:1"
       id="ellipse1538"
       cx="85.415573"
       cy="52.916801"
       rx="16.69693"
       ry="32.708191" />
  </g>
</svg>
